# xmcd CD database file
#
# Track frame offsets:
#	150
#	24752
#	44192
#	53660
#	68702
#	99302
#	142195
#	166097
#	188217
#	202037
#	210585
#	238752
#	271982
#	304932
#
# Disc length: 4437 seconds
#
# Revision: 1
# Processed by: cddbd v1.4PL0 Copyright (c) Steve Scherf et al.
# Submitted via: CDex 1.50
#
DISCID=c911530e
DTITLE=Dave Brubeck - Take - The Greatest Hits
DYEAR=1991
DGENRE=Jazz
TTITLE0=Take Five
TTITLE1=Somewhere
TTITLE2=Unsquare Dance
TTITLE3=Maria
TTITLE4=Blue Rondo A La Turk
TTITLE5=For All We Know
TTITLE6=The Most Beautiful Girl In The World
TTITLE7=Night And Day
TTITLE8=Trolley Song
TTITLE9=Camptown Races
TTITLE10=What Is This Thing Called Love
TTITLE11=Strange Meadow Lark
TTITLE12=Like Someone In Love
TTITLE13=Pennies From Heaven
EXTD=YEAR: 1991
EXTT0=
EXTT1=
EXTT2=
EXTT3=
EXTT4=
EXTT5=
EXTT6=
EXTT7=
EXTT8=
EXTT9=
EXTT10=
EXTT11=
EXTT12=
EXTT13=
PLAYORDER=
